{"asset":{"version":"2.0","generator":"babylon.js glTF exporter for 3dsmax 2017 v20200811.1"},"scene":0,"scenes":[{"nodes":[0,1,2]}],"nodes":[{"mesh":0,"translation":[0.0160857961,0.246219859,0.04021448],"name":"Plane001"},{"mesh":1,"translation":[0.0160857961,0.06692962,0.04021448],"name":"Plane002"},{"name":"Default light"}],"meshes":[{"primitives":[{"attributes":{"POSITION":1,"NORMAL":2,"TEXCOORD_0":3},"indices":0,"material":0}],"name":"Plane001"},{"primitives":[{"attributes":{"POSITION":5,"NORMAL":6,"TEXCOORD_0":7},"indices":4,"material":1}],"name":"Plane002"}],"accessors":[{"bufferView":0,"componentType":5123,"count":36,"type":"SCALAR","name":"accessorIndices"},{"bufferView":1,"componentType":5126,"count":36,"max":[0.25,0.0,0.25],"min":[-0.25,-0.0361536779,-0.25],"type":"VEC3","name":"accessorPositions"},{"bufferView":1,"byteOffset":432,"componentType":5126,"count":36,"type":"VEC3","name":"accessorNormals"},{"bufferView":2,"componentType":5126,"count":36,"type":"VEC2","name":"accessorUVs"},{"bufferView":0,"byteOffset":72,"componentType":5123,"count":36,"type":"SCALAR","name":"accessorIndices"},{"bufferView":1,"byteOffset":864,"componentType":5126,"count":36,"max":[0.399999976,0.0,0.399999976],"min":[-0.399999976,-0.0208299253,-0.399999976],"type":"VEC3","name":"accessorPositions"},{"bufferView":1,"byteOffset":1296,"componentType":5126,"count":36,"type":"VEC3","name":"accessorNormals"},{"bufferView":2,"byteOffset":288,"componentType":5126,"count":36,"type":"VEC2","name":"accessorUVs"},{"bufferView":3,"componentType":5126,"count":58,"max":[3.33333325],"min":[0.0],"type":"SCALAR","name":"accessorAnimationInput"},{"bufferView":4,"componentType":5126,"count":58,"type":"VEC4","name":"accessorAnimationRotations"}],"bufferViews":[{"buffer":0,"byteLength":144,"name":"bufferViewScalar"},{"buffer":0,"byteOffset":144,"byteLength":1728,"byteStride":12,"name":"bufferViewFloatVec3"},{"buffer":0,"byteOffset":1872,"byteLength":576,"byteStride":8,"name":"bufferViewFloatVec2"},{"buffer":0,"byteOffset":2448,"byteLength":232,"name":"bufferViewAnimationFloatScalar"},{"buffer":0,"byteOffset":2680,"byteLength":928,"name":"bufferViewAnimationFloatVec4"}],"buffers":[{"uri":"Alpha_Test.bin","byteLength":3608}],"materials":[{"pbrMetallicRoughness":{"baseColorTexture":{"index":0},"metallicFactor":0.0,"roughnessFactor":0.450053632},"name":"120A_Insat_default"},{"pbrMetallicRoughness":{"baseColorFactor":[0.733333349,0.9725491,0.0,1.0],"metallicFactor":0.0,"roughnessFactor":0.450053632},"name":"02 - Default"}],"textures":[{"sampler":0,"source":0,"name":"BWI_IT_PC.png"}],"images":[{"uri":"./BWI_IT_PC.png"}],"samplers":[{"magFilter":9729,"minFilter":9987}],"animations":[{"channels":[{"sampler":0,"target":{"node":0,"path":"rotation"}}],"samplers":[{"input":8,"output":9}],"name":"All Animations"}]}