{"asset":{"version":"2.0","generator":"babylon.js glTF exporter for 3dsmax 2017 v20200811.1"},"extensionsUsed":["KHR_texture_transform"],"extensionsRequired":["KHR_texture_transform"],"scene":0,"scenes":[{"nodes":[0,1,2]}],"nodes":[{"mesh":0,"translation":[0.0,0.1523677,0.0],"name":"Plane003"},{"mesh":1,"name":"Plane004"},{"name":"Default light"}],"meshes":[{"primitives":[{"attributes":{"POSITION":1,"NORMAL":2,"TEXCOORD_0":3},"indices":0,"material":0}],"name":"Plane003"},{"primitives":[{"attributes":{"POSITION":5,"NORMAL":6,"TEXCOORD_0":7},"indices":4,"material":1}],"name":"Plane004"}],"accessors":[{"bufferView":0,"componentType":5123,"count":6,"type":"SCALAR","name":"accessorIndices"},{"bufferView":1,"componentType":5126,"count":6,"max":[0.25,0.0,0.25],"min":[-0.25,0.0,-0.25],"type":"VEC3","name":"accessorPositions"},{"bufferView":1,"byteOffset":72,"componentType":5126,"count":6,"type":"VEC3","name":"accessorNormals"},{"bufferView":2,"componentType":5126,"count":6,"type":"VEC2","name":"accessorUVs"},{"bufferView":0,"byteOffset":12,"componentType":5123,"count":6,"type":"SCALAR","name":"accessorIndices"},{"bufferView":1,"byteOffset":144,"componentType":5126,"count":6,"max":[0.399999976,0.0,0.399999976],"min":[-0.399999976,0.0,-0.399999976],"type":"VEC3","name":"accessorPositions"},{"bufferView":1,"byteOffset":216,"componentType":5126,"count":6,"type":"VEC3","name":"accessorNormals"},{"bufferView":2,"byteOffset":48,"componentType":5126,"count":6,"type":"VEC2","name":"accessorUVs"}],"bufferViews":[{"buffer":0,"byteLength":24,"name":"bufferViewScalar"},{"buffer":0,"byteOffset":24,"byteLength":288,"byteStride":12,"name":"bufferViewFloatVec3"},{"buffer":0,"byteOffset":312,"byteLength":96,"byteStride":8,"name":"bufferViewFloatVec2"}],"buffers":[{"uri":"BWI_IT_Alpha.bin","byteLength":408}],"materials":[{"pbrMetallicRoughness":{"baseColorTexture":{"index":0,"extensions":{"KHR_texture_transform":{"offset":[0.0,0.0],"scale":[1.0,1.0],"texCoord":0}}},"metallicFactor":0.0,"roughnessFactor":0.450053632},"alphaMode":"MASK","name":"06 - Default"},{"pbrMetallicRoughness":{"baseColorFactor":[0.0196078438,0.607843161,0.227451,1.0],"metallicFactor":0.0,"roughnessFactor":0.450053632},"name":"07 - Default"}],"textures":[{"sampler":0,"source":0,"name":"BWI_IT_Star_Icons.png"}],"images":[{"uri":"./BWI_IT_Star_Icons.png"}],"samplers":[{"magFilter":9729,"minFilter":9987}]}