{"asset":{"version":"2.0","generator":"babylon.js glTF exporter for 3dsmax 2017 v20200811.1"},"scene":0,"scenes":[{"nodes":[0,1,2,10]}],"nodes":[{"mesh":0,"rotation":[0.0,-5.96046448E-08,0.0,1.0],"name":"Map"},{"mesh":1,"translation":[0.0,-0.181325674,0.0],"scale":[1.5,1.5,1.5],"name":"Map_Shadow"},{"children":[3,4,5,6,7,8,9],"translation":[0.0,-0.049999997,0.0],"scale":[0.379495829,0.379495829,0.379495829],"name":"ROOT_Mockup"},{"mesh":2,"translation":[0.0,4.61138058,0.0],"rotation":[0.7071068,0.0,0.0,0.7071067],"scale":[2.63507462,2.63507462,2.63507462],"name":"Text"},{"mesh":3,"translation":[2.43302321,1.89849114,-0.6156729],"rotation":[0.7071068,0.0,0.0,0.7071067],"scale":[2.10805941,2.10805941,2.10805941],"name":"Plane001"},{"mesh":4,"translation":[-2.99056721,6.75458765,3.13371459E-07],"rotation":[0.7071068,0.0,0.0,0.7071067],"scale":[2.63507462,2.63507462,2.63507462],"name":"Arrow"},{"mesh":5,"translation":[2.35670614,0.214846969,0.8363346],"rotation":[0.7071068,0.0,0.0,0.7071067],"scale":[2.63507462,2.63507462,2.63507462],"name":"StickiPoint_Cloud"},{"mesh":6,"translation":[2.12219429,0.745009065,0.824945331],"rotation":[0.7071068,0.0,0.0,0.7071067],"scale":[1.535636,1.535636,1.535636],"name":"Cloud"},{"mesh":7,"translation":[0.864909053,1.51229632,0.06664674],"rotation":[0.7071068,0.0,0.0,0.7071067],"scale":[2.63507462,2.63507462,2.63507462],"name":"StickiPoint"},{"mesh":8,"translation":[-1.76162314,0.808825731,0.22875306],"rotation":[0.7071068,0.0,0.0,0.7071067],"scale":[2.63507462,2.63507462,2.63507462],"name":"Locality Point"},{"name":"Default light"}],"meshes":[{"primitives":[{"attributes":{"POSITION":1,"NORMAL":2,"TEXCOORD_0":3},"indices":0,"material":0}],"name":"Map"},{"primitives":[{"attributes":{"POSITION":5,"NORMAL":6,"TEXCOORD_0":7},"indices":4,"material":1}],"name":"Map_Shadow"},{"primitives":[{"attributes":{"POSITION":9,"NORMAL":10,"TEXCOORD_0":11},"indices":8,"material":2}],"name":"Text"},{"primitives":[{"attributes":{"POSITION":13,"NORMAL":14,"TEXCOORD_0":15},"indices":12,"material":3}],"name":"Plane001"},{"primitives":[{"attributes":{"POSITION":17,"NORMAL":18,"TEXCOORD_0":19},"indices":16,"material":4}],"name":"Arrow"},{"primitives":[{"attributes":{"POSITION":21,"NORMAL":22,"TEXCOORD_0":23},"indices":20,"material":5}],"name":"StickiPoint_Cloud"},{"primitives":[{"attributes":{"POSITION":25,"NORMAL":26,"TEXCOORD_0":27},"indices":24,"material":6}],"name":"Cloud"},{"primitives":[{"attributes":{"POSITION":29,"NORMAL":30,"TEXCOORD_0":31},"indices":28,"material":7}],"name":"StickiPoint"},{"primitives":[{"attributes":{"POSITION":33,"NORMAL":34,"TEXCOORD_0":35},"indices":32,"material":8}],"name":"Locality Point"}],"accessors":[{"bufferView":0,"componentType":5123,"count":6,"type":"SCALAR","name":"accessorIndices"},{"bufferView":1,"componentType":5126,"count":6,"max":[1.0,0.0,1.0],"min":[-1.0,0.0,-1.0],"type":"VEC3","name":"accessorPositions"},{"bufferView":1,"byteOffset":72,"componentType":5126,"count":6,"type":"VEC3","name":"accessorNormals"},{"bufferView":2,"componentType":5126,"count":6,"type":"VEC2","name":"accessorUVs"},{"bufferView":0,"byteOffset":12,"componentType":5123,"count":6,"type":"SCALAR","name":"accessorIndices"},{"bufferView":1,"byteOffset":144,"componentType":5126,"count":6,"max":[1.0,0.0,1.0],"min":[-1.0,0.0,-1.0],"type":"VEC3","name":"accessorPositions"},{"bufferView":1,"byteOffset":216,"componentType":5126,"count":6,"type":"VEC3","name":"accessorNormals"},{"bufferView":2,"byteOffset":48,"componentType":5126,"count":6,"type":"VEC2","name":"accessorUVs"},{"bufferView":0,"byteOffset":24,"componentType":5123,"count":6,"type":"SCALAR","name":"accessorIndices"},{"bufferView":1,"byteOffset":288,"componentType":5126,"count":6,"max":[1.0,0.0,0.399999976],"min":[-1.0,0.0,-0.399999976],"type":"VEC3","name":"accessorPositions"},{"bufferView":1,"byteOffset":360,"componentType":5126,"count":6,"type":"VEC3","name":"accessorNormals"},{"bufferView":2,"byteOffset":96,"componentType":5126,"count":6,"type":"VEC2","name":"accessorUVs"},{"bufferView":0,"byteOffset":36,"componentType":5123,"count":6,"type":"SCALAR","name":"accessorIndices"},{"bufferView":1,"byteOffset":432,"componentType":5126,"count":6,"max":[0.25,0.0,0.25],"min":[-0.25,0.0,-0.25],"type":"VEC3","name":"accessorPositions"},{"bufferView":1,"byteOffset":504,"componentType":5126,"count":6,"type":"VEC3","name":"accessorNormals"},{"bufferView":2,"byteOffset":144,"componentType":5126,"count":6,"type":"VEC2","name":"accessorUVs"},{"bufferView":0,"byteOffset":48,"componentType":5123,"count":6,"type":"SCALAR","name":"accessorIndices"},{"bufferView":1,"byteOffset":576,"componentType":5126,"count":6,"max":[0.35,0.0,0.35],"min":[-0.35,0.0,-0.35],"type":"VEC3","name":"accessorPositions"},{"bufferView":1,"byteOffset":648,"componentType":5126,"count":6,"type":"VEC3","name":"accessorNormals"},{"bufferView":2,"byteOffset":192,"componentType":5126,"count":6,"type":"VEC2","name":"accessorUVs"},{"bufferView":0,"byteOffset":60,"componentType":5123,"count":6,"type":"SCALAR","name":"accessorIndices"},{"bufferView":1,"byteOffset":720,"componentType":5126,"count":6,"max":[0.0275,0.0,0.065],"min":[-0.0275,0.0,-0.065],"type":"VEC3","name":"accessorPositions"},{"bufferView":1,"byteOffset":792,"componentType":5126,"count":6,"type":"VEC3","name":"accessorNormals"},{"bufferView":2,"byteOffset":240,"componentType":5126,"count":6,"type":"VEC2","name":"accessorUVs"},{"bufferView":0,"byteOffset":72,"componentType":5123,"count":6,"type":"SCALAR","name":"accessorIndices"},{"bufferView":1,"byteOffset":864,"componentType":5126,"count":6,"max":[0.355,0.0,0.25],"min":[-0.355,0.0,-0.25],"type":"VEC3","name":"accessorPositions"},{"bufferView":1,"byteOffset":936,"componentType":5126,"count":6,"type":"VEC3","name":"accessorNormals"},{"bufferView":2,"byteOffset":288,"componentType":5126,"count":6,"type":"VEC2","name":"accessorUVs"},{"bufferView":0,"byteOffset":84,"componentType":5123,"count":6,"type":"SCALAR","name":"accessorIndices"},{"bufferView":1,"byteOffset":1008,"componentType":5126,"count":6,"max":[0.25,0.0,0.52],"min":[-0.25,0.0,-0.52],"type":"VEC3","name":"accessorPositions"},{"bufferView":1,"byteOffset":1080,"componentType":5126,"count":6,"type":"VEC3","name":"accessorNormals"},{"bufferView":2,"byteOffset":336,"componentType":5126,"count":6,"type":"VEC2","name":"accessorUVs"},{"bufferView":0,"byteOffset":96,"componentType":5123,"count":6,"type":"SCALAR","name":"accessorIndices"},{"bufferView":1,"byteOffset":1152,"componentType":5126,"count":6,"max":[0.25,0.0,0.25],"min":[-0.25,0.0,-0.25],"type":"VEC3","name":"accessorPositions"},{"bufferView":1,"byteOffset":1224,"componentType":5126,"count":6,"type":"VEC3","name":"accessorNormals"},{"bufferView":2,"byteOffset":384,"componentType":5126,"count":6,"type":"VEC2","name":"accessorUVs"}],"bufferViews":[{"buffer":0,"byteLength":108,"name":"bufferViewScalar"},{"buffer":0,"byteOffset":108,"byteLength":1296,"byteStride":12,"name":"bufferViewFloatVec3"},{"buffer":0,"byteOffset":1404,"byteLength":432,"byteStride":8,"name":"bufferViewFloatVec2"}],"buffers":[{"uri":"BWI_AR_Mockup.bin","byteLength":1836}],"materials":[{"pbrMetallicRoughness":{"baseColorTexture":{"index":0},"metallicFactor":0.0,"roughnessFactor":0.450053632},"alphaMode":"MASK","name":"120A_Insat_default"},{"pbrMetallicRoughness":{"baseColorTexture":{"index":1},"metallicFactor":0.0,"roughnessFactor":0.450053632},"alphaMode":"BLEND","name":"03 - Default"},{"pbrMetallicRoughness":{"baseColorTexture":{"index":2},"metallicFactor":0.0,"roughnessFactor":0.450053632},"alphaMode":"MASK","name":"08 - Default"},{"pbrMetallicRoughness":{"baseColorTexture":{"index":3},"metallicFactor":0.0,"roughnessFactor":0.450053632},"alphaMode":"MASK","name":"07 - Default"},{"pbrMetallicRoughness":{"baseColorTexture":{"index":4},"metallicFactor":0.0,"roughnessFactor":0.450053632},"alphaMode":"MASK","name":"09 - Default"},{"pbrMetallicRoughness":{"baseColorTexture":{"index":5},"metallicFactor":0.0,"roughnessFactor":0.450053632},"alphaMode":"MASK","name":"06 - Default"},{"pbrMetallicRoughness":{"baseColorTexture":{"index":6},"metallicFactor":0.0,"roughnessFactor":0.450053632},"alphaMode":"MASK","name":"05 - Default"},{"pbrMetallicRoughness":{"baseColorTexture":{"index":7},"metallicFactor":0.0,"roughnessFactor":0.450053632},"alphaMode":"MASK","name":"04 - Default"},{"pbrMetallicRoughness":{"baseColorTexture":{"index":8},"metallicFactor":0.0,"roughnessFactor":0.450053632},"alphaMode":"MASK","name":"02 - Default"}],"textures":[{"sampler":0,"source":0,"name":"map_standorte@3x.png"},{"sampler":0,"source":1,"name":"schatten.png"},{"sampler":0,"source":2,"name":"claim_auchindeinernaehe@3x.png"},{"sampler":0,"source":3,"name":"icon_kabelline@3x.png"},{"sampler":0,"source":4,"name":"illu_pfeil_1@3x.png"},{"sampler":0,"source":5,"name":"illu_strang_kurz@3x.png"},{"sampler":0,"source":6,"name":"illu_wolke@3x.png"},{"sampler":0,"source":7,"name":"illu_strang_lang_rund@3x.png"},{"sampler":0,"source":8,"name":"pin_gross.png"}],"images":[{"uri":"./map_standorte@3x.png"},{"uri":"./schatten.png"},{"uri":"./claim_auchindeinernaehe@3x.png"},{"uri":"./icon_kabelline@3x.png"},{"uri":"./illu_pfeil_1@3x.png"},{"uri":"./illu_strang_kurz@3x.png"},{"uri":"./illu_wolke@3x.png"},{"uri":"./illu_strang_lang_rund@3x.png"},{"uri":"./pin_gross.png"}],"samplers":[{"magFilter":9729,"minFilter":9987}]}