{"asset":{"version":"2.0","generator":"babylon.js glTF exporter for 3dsmax 2017 v20200811.1"},"scene":0,"scenes":[{"nodes":[0,5,6,11,16,21]}],"nodes":[{"children":[1,2,3,4],"translation":[-3.37358475,0.599999964,2.34094477],"rotation":[0.7071068,0.0,0.0,0.7071067],"name":"Point001"},{"mesh":0,"translation":[0.0,0.0,-0.799999952],"scale":[0.0,0.0,0.0],"name":"Circle001"},{"mesh":1,"translation":[0.0,0.0,-0.799999952],"scale":[0.0,0.0,0.0],"name":"Circle002"},{"mesh":2,"translation":[0.0,0.0,-0.799999952],"scale":[0.0,0.0,0.0],"name":"Circle003"},{"mesh":3,"translation":[0.0,0.0,-0.799999952],"scale":[0.0,0.0,0.0],"name":"BWI_IT_Adler"},{"mesh":4,"scale":[3.0,3.0,3.0],"name":"Plane001"},{"children":[7,8,9,10],"translation":[-3.37358475,0.599999964,-0.61769104],"rotation":[0.7071068,0.0,0.0,0.7071067],"name":"Point002"},{"mesh":5,"translation":[0.0,0.0,-0.799999952],"scale":[0.0,0.0,0.0],"name":"BWI_IT_Adler001"},{"mesh":6,"translation":[0.0,-3.81469718E-08,-0.799999952],"scale":[0.0,0.0,0.0],"name":"Circle004"},{"mesh":7,"translation":[0.0,-3.81469718E-08,-0.799999952],"scale":[0.0,0.0,0.0],"name":"Circle005"},{"mesh":8,"translation":[0.0,-3.81469718E-08,-0.799999952],"scale":[0.0,0.0,0.0],"name":"Circle006"},{"children":[12,13,14,15],"translation":[1.5817076,0.599999964,-2.60940671],"rotation":[0.7071068,0.0,0.0,0.7071067],"name":"Point003"},{"mesh":9,"translation":[0.0,0.0,-0.799999952],"scale":[0.0,0.0,0.0],"name":"BWI_IT_Adler002"},{"mesh":10,"translation":[0.0,0.0,-0.799999952],"scale":[0.0,0.0,0.0],"name":"Circle007"},{"mesh":11,"translation":[0.0,0.0,-0.799999952],"scale":[0.0,0.0,0.0],"name":"Circle008"},{"mesh":12,"translation":[0.0,0.0,-0.799999952],"scale":[0.0,0.0,0.0],"name":"Circle009"},{"children":[17,18,19,20],"translation":[3.465714,0.599999964,-0.8706503],"rotation":[0.7071068,0.0,0.0,0.7071067],"name":"Point004"},{"mesh":13,"translation":[0.0,-7.62939436E-08,-0.799999952],"scale":[0.0,0.0,0.0],"name":"BWI_IT_Adler003"},{"mesh":14,"translation":[0.0,-7.62939436E-08,-0.799999952],"scale":[0.0,0.0,0.0],"name":"Circle010"},{"mesh":15,"translation":[0.0,-7.62939436E-08,-0.799999952],"scale":[0.0,0.0,0.0],"name":"Circle011"},{"mesh":16,"translation":[0.0,-7.62939436E-08,-0.799999952],"scale":[0.0,0.0,0.0],"name":"Circle012"},{"name":"Default light"}],"meshes":[{"primitives":[{"attributes":{"POSITION":1,"NORMAL":2},"indices":0,"material":0}],"name":"Circle001"},{"primitives":[{"attributes":{"POSITION":4,"NORMAL":5},"indices":3,"material":0}],"name":"Circle002"},{"primitives":[{"attributes":{"POSITION":7,"NORMAL":8},"indices":6,"material":0}],"name":"Circle003"},{"primitives":[{"attributes":{"POSITION":10,"NORMAL":11,"TEXCOORD_0":12},"indices":9,"material":0}],"name":"BWI_IT_Adler"},{"primitives":[{"attributes":{"POSITION":14,"NORMAL":15,"TEXCOORD_0":16},"indices":13,"material":1}],"name":"Plane001"},{"primitives":[{"attributes":{"POSITION":18,"NORMAL":19,"TEXCOORD_0":20},"indices":17,"material":0}],"name":"BWI_IT_Adler001"},{"primitives":[{"attributes":{"POSITION":22,"NORMAL":23},"indices":21,"material":0}],"name":"Circle004"},{"primitives":[{"attributes":{"POSITION":25,"NORMAL":26},"indices":24,"material":0}],"name":"Circle005"},{"primitives":[{"attributes":{"POSITION":28,"NORMAL":29},"indices":27,"material":0}],"name":"Circle006"},{"primitives":[{"attributes":{"POSITION":31,"NORMAL":32,"TEXCOORD_0":33},"indices":30,"material":0}],"name":"BWI_IT_Adler002"},{"primitives":[{"attributes":{"POSITION":35,"NORMAL":36},"indices":34,"material":0}],"name":"Circle007"},{"primitives":[{"attributes":{"POSITION":38,"NORMAL":39},"indices":37,"material":0}],"name":"Circle008"},{"primitives":[{"attributes":{"POSITION":41,"NORMAL":42},"indices":40,"material":0}],"name":"Circle009"},{"primitives":[{"attributes":{"POSITION":44,"NORMAL":45,"TEXCOORD_0":46},"indices":43,"material":0}],"name":"BWI_IT_Adler003"},{"primitives":[{"attributes":{"POSITION":48,"NORMAL":49},"indices":47,"material":0}],"name":"Circle010"},{"primitives":[{"attributes":{"POSITION":51,"NORMAL":52},"indices":50,"material":0}],"name":"Circle011"},{"primitives":[{"attributes":{"POSITION":54,"NORMAL":55},"indices":53,"material":0}],"name":"Circle012"}],"accessors":[{"bufferView":0,"componentType":5123,"count":2676,"type":"SCALAR","name":"accessorIndices"},{"bufferView":1,"componentType":5126,"count":2676,"max":[0.42023626,0.01,0.6200181],"min":[-0.6200181,-0.01,-0.6200181],"type":"VEC3","name":"accessorPositions"},{"bufferView":1,"byteOffset":32112,"componentType":5126,"count":2676,"type":"VEC3","name":"accessorNormals"},{"bufferView":0,"byteOffset":5352,"componentType":5123,"count":2244,"type":"SCALAR","name":"accessorIndices"},{"bufferView":1,"byteOffset":64224,"componentType":5126,"count":2244,"max":[0.650018156,0.01,0.6476306],"min":[-0.440569371,-0.01,-0.650018156],"type":"VEC3","name":"accessorPositions"},{"bufferView":1,"byteOffset":91152,"componentType":5126,"count":2244,"type":"VEC3","name":"accessorNormals"},{"bufferView":0,"byteOffset":9840,"componentType":5123,"count":1428,"type":"SCALAR","name":"accessorIndices"},{"bufferView":1,"byteOffset":118080,"componentType":5126,"count":1428,"max":[0.657593846,0.01,0.660018146],"min":[-0.5196509,-0.01,0.05347264],"type":"VEC3","name":"accessorPositions"},{"bufferView":1,"byteOffset":135216,"componentType":5126,"count":1428,"type":"VEC3","name":"accessorNormals"},{"bufferView":0,"byteOffset":12696,"componentType":5123,"count":2724,"type":"SCALAR","name":"accessorIndices"},{"bufferView":1,"byteOffset":152352,"componentType":5126,"count":2724,"max":[0.013504805,0.000500001363,0.01070341],"min":[-0.0128203416,-0.0005000014,-0.0123733282],"type":"VEC3","name":"accessorPositions"},{"bufferView":1,"byteOffset":185040,"componentType":5126,"count":2724,"type":"VEC3","name":"accessorNormals"},{"bufferView":2,"componentType":5126,"count":2724,"type":"VEC2","name":"accessorUVs"},{"bufferView":0,"byteOffset":18144,"componentType":5123,"count":6,"type":"SCALAR","name":"accessorIndices"},{"bufferView":1,"byteOffset":217728,"componentType":5126,"count":6,"max":[1.5,0.0,1.5],"min":[-1.5,0.0,-1.5],"type":"VEC3","name":"accessorPositions"},{"bufferView":1,"byteOffset":217800,"componentType":5126,"count":6,"type":"VEC3","name":"accessorNormals"},{"bufferView":2,"byteOffset":21792,"componentType":5126,"count":6,"type":"VEC2","name":"accessorUVs"},{"bufferView":0,"byteOffset":18156,"componentType":5123,"count":2724,"type":"SCALAR","name":"accessorIndices"},{"bufferView":1,"byteOffset":217872,"componentType":5126,"count":2724,"max":[0.013504805,0.000500001363,0.01070341],"min":[-0.0128203416,-0.0005000014,-0.0123733282],"type":"VEC3","name":"accessorPositions"},{"bufferView":1,"byteOffset":250560,"componentType":5126,"count":2724,"type":"VEC3","name":"accessorNormals"},{"bufferView":2,"byteOffset":21840,"componentType":5126,"count":2724,"type":"VEC2","name":"accessorUVs"},{"bufferView":0,"byteOffset":23604,"componentType":5123,"count":2676,"type":"SCALAR","name":"accessorIndices"},{"bufferView":1,"byteOffset":283248,"componentType":5126,"count":2676,"max":[0.42023626,0.01,0.6200181],"min":[-0.6200181,-0.01,-0.6200181],"type":"VEC3","name":"accessorPositions"},{"bufferView":1,"byteOffset":315360,"componentType":5126,"count":2676,"type":"VEC3","name":"accessorNormals"},{"bufferView":0,"byteOffset":28956,"componentType":5123,"count":2244,"type":"SCALAR","name":"accessorIndices"},{"bufferView":1,"byteOffset":347472,"componentType":5126,"count":2244,"max":[0.650018156,0.01,0.6476306],"min":[-0.440569371,-0.01,-0.650018156],"type":"VEC3","name":"accessorPositions"},{"bufferView":1,"byteOffset":374400,"componentType":5126,"count":2244,"type":"VEC3","name":"accessorNormals"},{"bufferView":0,"byteOffset":33444,"componentType":5123,"count":1428,"type":"SCALAR","name":"accessorIndices"},{"bufferView":1,"byteOffset":401328,"componentType":5126,"count":1428,"max":[0.657593846,0.01,0.660018146],"min":[-0.5196509,-0.01,0.05347264],"type":"VEC3","name":"accessorPositions"},{"bufferView":1,"byteOffset":418464,"componentType":5126,"count":1428,"type":"VEC3","name":"accessorNormals"},{"bufferView":0,"byteOffset":36300,"componentType":5123,"count":2724,"type":"SCALAR","name":"accessorIndices"},{"bufferView":1,"byteOffset":435600,"componentType":5126,"count":2724,"max":[0.013504805,0.000500001363,0.01070341],"min":[-0.0128203416,-0.0005000014,-0.0123733282],"type":"VEC3","name":"accessorPositions"},{"bufferView":1,"byteOffset":468288,"componentType":5126,"count":2724,"type":"VEC3","name":"accessorNormals"},{"bufferView":2,"byteOffset":43632,"componentType":5126,"count":2724,"type":"VEC2","name":"accessorUVs"},{"bufferView":0,"byteOffset":41748,"componentType":5123,"count":2676,"type":"SCALAR","name":"accessorIndices"},{"bufferView":1,"byteOffset":500976,"componentType":5126,"count":2676,"max":[0.42023626,0.01,0.6200181],"min":[-0.6200181,-0.01,-0.6200181],"type":"VEC3","name":"accessorPositions"},{"bufferView":1,"byteOffset":533088,"componentType":5126,"count":2676,"type":"VEC3","name":"accessorNormals"},{"bufferView":0,"byteOffset":47100,"componentType":5123,"count":2244,"type":"SCALAR","name":"accessorIndices"},{"bufferView":1,"byteOffset":565200,"componentType":5126,"count":2244,"max":[0.650018156,0.01,0.6476306],"min":[-0.440569371,-0.01,-0.650018156],"type":"VEC3","name":"accessorPositions"},{"bufferView":1,"byteOffset":592128,"componentType":5126,"count":2244,"type":"VEC3","name":"accessorNormals"},{"bufferView":0,"byteOffset":51588,"componentType":5123,"count":1428,"type":"SCALAR","name":"accessorIndices"},{"bufferView":1,"byteOffset":619056,"componentType":5126,"count":1428,"max":[0.657593846,0.01,0.660018146],"min":[-0.5196509,-0.01,0.05347264],"type":"VEC3","name":"accessorPositions"},{"bufferView":1,"byteOffset":636192,"componentType":5126,"count":1428,"type":"VEC3","name":"accessorNormals"},{"bufferView":0,"byteOffset":54444,"componentType":5123,"count":2724,"type":"SCALAR","name":"accessorIndices"},{"bufferView":1,"byteOffset":653328,"componentType":5126,"count":2724,"max":[0.013504805,0.000500001363,0.01070341],"min":[-0.0128203416,-0.0005000014,-0.0123733282],"type":"VEC3","name":"accessorPositions"},{"bufferView":1,"byteOffset":686016,"componentType":5126,"count":2724,"type":"VEC3","name":"accessorNormals"},{"bufferView":2,"byteOffset":65424,"componentType":5126,"count":2724,"type":"VEC2","name":"accessorUVs"},{"bufferView":0,"byteOffset":59892,"componentType":5123,"count":2676,"type":"SCALAR","name":"accessorIndices"},{"bufferView":1,"byteOffset":718704,"componentType":5126,"count":2676,"max":[0.42023626,0.01,0.6200181],"min":[-0.6200181,-0.01,-0.6200181],"type":"VEC3","name":"accessorPositions"},{"bufferView":1,"byteOffset":750816,"componentType":5126,"count":2676,"type":"VEC3","name":"accessorNormals"},{"bufferView":0,"byteOffset":65244,"componentType":5123,"count":2244,"type":"SCALAR","name":"accessorIndices"},{"bufferView":1,"byteOffset":782928,"componentType":5126,"count":2244,"max":[0.650018156,0.01,0.6476306],"min":[-0.440569371,-0.01,-0.650018156],"type":"VEC3","name":"accessorPositions"},{"bufferView":1,"byteOffset":809856,"componentType":5126,"count":2244,"type":"VEC3","name":"accessorNormals"},{"bufferView":0,"byteOffset":69732,"componentType":5123,"count":1428,"type":"SCALAR","name":"accessorIndices"},{"bufferView":1,"byteOffset":836784,"componentType":5126,"count":1428,"max":[0.657593846,0.01,0.660018146],"min":[-0.5196509,-0.01,0.05347264],"type":"VEC3","name":"accessorPositions"},{"bufferView":1,"byteOffset":853920,"componentType":5126,"count":1428,"type":"VEC3","name":"accessorNormals"},{"bufferView":3,"componentType":5126,"count":70,"max":[7.96],"min":[0.0],"type":"SCALAR","name":"accessorAnimationInput"},{"bufferView":4,"componentType":5126,"count":70,"type":"VEC4","name":"accessorAnimationRotations"},{"bufferView":3,"byteOffset":280,"componentType":5126,"count":11,"max":[7.96],"min":[0.0],"type":"SCALAR","name":"accessorAnimationInput"},{"bufferView":5,"componentType":5126,"count":11,"type":"VEC3","name":"accessorAnimationScales"},{"bufferView":3,"byteOffset":324,"componentType":5126,"count":24,"max":[7.96],"min":[0.0],"type":"SCALAR","name":"accessorAnimationInput"},{"bufferView":4,"byteOffset":1120,"componentType":5126,"count":24,"type":"VEC4","name":"accessorAnimationRotations"},{"bufferView":3,"byteOffset":420,"componentType":5126,"count":11,"max":[7.96],"min":[0.0],"type":"SCALAR","name":"accessorAnimationInput"},{"bufferView":5,"byteOffset":132,"componentType":5126,"count":11,"type":"VEC3","name":"accessorAnimationScales"},{"bufferView":3,"byteOffset":464,"componentType":5126,"count":24,"max":[7.96],"min":[0.0],"type":"SCALAR","name":"accessorAnimationInput"},{"bufferView":4,"byteOffset":1504,"componentType":5126,"count":24,"type":"VEC4","name":"accessorAnimationRotations"},{"bufferView":3,"byteOffset":560,"componentType":5126,"count":11,"max":[7.96],"min":[0.0],"type":"SCALAR","name":"accessorAnimationInput"},{"bufferView":5,"byteOffset":264,"componentType":5126,"count":11,"type":"VEC3","name":"accessorAnimationScales"},{"bufferView":3,"byteOffset":604,"componentType":5126,"count":10,"max":[7.96],"min":[0.0],"type":"SCALAR","name":"accessorAnimationInput"},{"bufferView":5,"byteOffset":396,"componentType":5126,"count":10,"type":"VEC3","name":"accessorAnimationScales"},{"bufferView":3,"byteOffset":644,"componentType":5126,"count":10,"max":[7.96],"min":[0.0],"type":"SCALAR","name":"accessorAnimationInput"},{"bufferView":5,"byteOffset":516,"componentType":5126,"count":10,"type":"VEC3","name":"accessorAnimationScales"},{"bufferView":3,"byteOffset":684,"componentType":5126,"count":84,"max":[7.96],"min":[0.0],"type":"SCALAR","name":"accessorAnimationInput"},{"bufferView":4,"byteOffset":1888,"componentType":5126,"count":84,"type":"VEC4","name":"accessorAnimationRotations"},{"bufferView":3,"byteOffset":1020,"componentType":5126,"count":11,"max":[7.96],"min":[0.0],"type":"SCALAR","name":"accessorAnimationInput"},{"bufferView":5,"byteOffset":636,"componentType":5126,"count":11,"type":"VEC3","name":"accessorAnimationScales"},{"bufferView":3,"byteOffset":1064,"componentType":5126,"count":25,"max":[7.96],"min":[0.0],"type":"SCALAR","name":"accessorAnimationInput"},{"bufferView":4,"byteOffset":3232,"componentType":5126,"count":25,"type":"VEC4","name":"accessorAnimationRotations"},{"bufferView":3,"byteOffset":1164,"componentType":5126,"count":11,"max":[7.96],"min":[0.0],"type":"SCALAR","name":"accessorAnimationInput"},{"bufferView":5,"byteOffset":768,"componentType":5126,"count":11,"type":"VEC3","name":"accessorAnimationScales"},{"bufferView":3,"byteOffset":1208,"componentType":5126,"count":25,"max":[7.96],"min":[0.0],"type":"SCALAR","name":"accessorAnimationInput"},{"bufferView":4,"byteOffset":3632,"componentType":5126,"count":25,"type":"VEC4","name":"accessorAnimationRotations"},{"bufferView":3,"byteOffset":1308,"componentType":5126,"count":11,"max":[7.96],"min":[0.0],"type":"SCALAR","name":"accessorAnimationInput"},{"bufferView":5,"byteOffset":900,"componentType":5126,"count":11,"type":"VEC3","name":"accessorAnimationScales"},{"bufferView":3,"byteOffset":1352,"componentType":5126,"count":10,"max":[7.96],"min":[0.0],"type":"SCALAR","name":"accessorAnimationInput"},{"bufferView":5,"byteOffset":1032,"componentType":5126,"count":10,"type":"VEC3","name":"accessorAnimationScales"},{"bufferView":3,"byteOffset":1392,"componentType":5126,"count":86,"max":[7.96],"min":[0.0],"type":"SCALAR","name":"accessorAnimationInput"},{"bufferView":4,"byteOffset":4032,"componentType":5126,"count":86,"type":"VEC4","name":"accessorAnimationRotations"},{"bufferView":3,"byteOffset":1736,"componentType":5126,"count":11,"max":[7.96],"min":[0.0],"type":"SCALAR","name":"accessorAnimationInput"},{"bufferView":5,"byteOffset":1152,"componentType":5126,"count":11,"type":"VEC3","name":"accessorAnimationScales"},{"bufferView":3,"byteOffset":1780,"componentType":5126,"count":27,"max":[7.96],"min":[0.0],"type":"SCALAR","name":"accessorAnimationInput"},{"bufferView":4,"byteOffset":5408,"componentType":5126,"count":27,"type":"VEC4","name":"accessorAnimationRotations"},{"bufferView":3,"byteOffset":1888,"componentType":5126,"count":11,"max":[7.96],"min":[0.0],"type":"SCALAR","name":"accessorAnimationInput"},{"bufferView":5,"byteOffset":1284,"componentType":5126,"count":11,"type":"VEC3","name":"accessorAnimationScales"},{"bufferView":3,"byteOffset":1932,"componentType":5126,"count":27,"max":[7.96],"min":[0.0],"type":"SCALAR","name":"accessorAnimationInput"},{"bufferView":4,"byteOffset":5840,"componentType":5126,"count":27,"type":"VEC4","name":"accessorAnimationRotations"},{"bufferView":3,"byteOffset":2040,"componentType":5126,"count":11,"max":[7.96],"min":[0.0],"type":"SCALAR","name":"accessorAnimationInput"},{"bufferView":5,"byteOffset":1416,"componentType":5126,"count":11,"type":"VEC3","name":"accessorAnimationScales"},{"bufferView":3,"byteOffset":2084,"componentType":5126,"count":10,"max":[7.96],"min":[0.0],"type":"SCALAR","name":"accessorAnimationInput"},{"bufferView":5,"byteOffset":1548,"componentType":5126,"count":10,"type":"VEC3","name":"accessorAnimationScales"},{"bufferView":3,"byteOffset":2124,"componentType":5126,"count":86,"max":[7.96],"min":[0.0],"type":"SCALAR","name":"accessorAnimationInput"},{"bufferView":4,"byteOffset":6272,"componentType":5126,"count":86,"type":"VEC4","name":"accessorAnimationRotations"},{"bufferView":3,"byteOffset":2468,"componentType":5126,"count":11,"max":[7.96],"min":[0.0],"type":"SCALAR","name":"accessorAnimationInput"},{"bufferView":5,"byteOffset":1668,"componentType":5126,"count":11,"type":"VEC3","name":"accessorAnimationScales"},{"bufferView":3,"byteOffset":2512,"componentType":5126,"count":28,"max":[7.96],"min":[0.0],"type":"SCALAR","name":"accessorAnimationInput"},{"bufferView":4,"byteOffset":7648,"componentType":5126,"count":28,"type":"VEC4","name":"accessorAnimationRotations"},{"bufferView":3,"byteOffset":2624,"componentType":5126,"count":11,"max":[7.96],"min":[0.0],"type":"SCALAR","name":"accessorAnimationInput"},{"bufferView":5,"byteOffset":1800,"componentType":5126,"count":11,"type":"VEC3","name":"accessorAnimationScales"},{"bufferView":3,"byteOffset":2668,"componentType":5126,"count":28,"max":[7.96],"min":[0.0],"type":"SCALAR","name":"accessorAnimationInput"},{"bufferView":4,"byteOffset":8096,"componentType":5126,"count":28,"type":"VEC4","name":"accessorAnimationRotations"},{"bufferView":3,"byteOffset":2780,"componentType":5126,"count":11,"max":[7.96],"min":[0.0],"type":"SCALAR","name":"accessorAnimationInput"},{"bufferView":5,"byteOffset":1932,"componentType":5126,"count":11,"type":"VEC3","name":"accessorAnimationScales"}],"bufferViews":[{"buffer":0,"byteLength":72588,"name":"bufferViewScalar"},{"buffer":0,"byteOffset":72588,"byteLength":871056,"byteStride":12,"name":"bufferViewFloatVec3"},{"buffer":0,"byteOffset":943644,"byteLength":87216,"byteStride":8,"name":"bufferViewFloatVec2"},{"buffer":0,"byteOffset":1030860,"byteLength":2824,"name":"bufferViewAnimationFloatScalar"},{"buffer":0,"byteOffset":1033684,"byteLength":8544,"name":"bufferViewAnimationFloatVec4"},{"buffer":0,"byteOffset":1042228,"byteLength":2064,"name":"bufferViewAnimationFloatVec3"}],"buffers":[{"uri":"BWI_IT_Icons.bin","byteLength":1044292}],"materials":[{"pbrMetallicRoughness":{"baseColorFactor":[0.941176534,0.941176534,0.941176534,1.0],"metallicFactor":0.0,"roughnessFactor":0.292422682},"name":"M_Animation"},{"pbrMetallicRoughness":{"metallicFactor":0.0,"roughnessFactor":0.450053632},"name":"03 - Default"}],"animations":[{"channels":[{"sampler":0,"target":{"node":1,"path":"rotation"}},{"sampler":1,"target":{"node":1,"path":"scale"}},{"sampler":2,"target":{"node":2,"path":"rotation"}},{"sampler":3,"target":{"node":2,"path":"scale"}},{"sampler":4,"target":{"node":3,"path":"rotation"}},{"sampler":5,"target":{"node":3,"path":"scale"}},{"sampler":6,"target":{"node":4,"path":"scale"}},{"sampler":7,"target":{"node":7,"path":"scale"}},{"sampler":8,"target":{"node":8,"path":"rotation"}},{"sampler":9,"target":{"node":8,"path":"scale"}},{"sampler":10,"target":{"node":9,"path":"rotation"}},{"sampler":11,"target":{"node":9,"path":"scale"}},{"sampler":12,"target":{"node":10,"path":"rotation"}},{"sampler":13,"target":{"node":10,"path":"scale"}},{"sampler":14,"target":{"node":12,"path":"scale"}},{"sampler":15,"target":{"node":13,"path":"rotation"}},{"sampler":16,"target":{"node":13,"path":"scale"}},{"sampler":17,"target":{"node":14,"path":"rotation"}},{"sampler":18,"target":{"node":14,"path":"scale"}},{"sampler":19,"target":{"node":15,"path":"rotation"}},{"sampler":20,"target":{"node":15,"path":"scale"}},{"sampler":21,"target":{"node":17,"path":"scale"}},{"sampler":22,"target":{"node":18,"path":"rotation"}},{"sampler":23,"target":{"node":18,"path":"scale"}},{"sampler":24,"target":{"node":19,"path":"rotation"}},{"sampler":25,"target":{"node":19,"path":"scale"}},{"sampler":26,"target":{"node":20,"path":"rotation"}},{"sampler":27,"target":{"node":20,"path":"scale"}}],"samplers":[{"input":56,"output":57},{"input":58,"output":59},{"input":60,"output":61},{"input":62,"output":63},{"input":64,"output":65},{"input":66,"output":67},{"input":68,"output":69},{"input":70,"output":71},{"input":72,"output":73},{"input":74,"output":75},{"input":76,"output":77},{"input":78,"output":79},{"input":80,"output":81},{"input":82,"output":83},{"input":84,"output":85},{"input":86,"output":87},{"input":88,"output":89},{"input":90,"output":91},{"input":92,"output":93},{"input":94,"output":95},{"input":96,"output":97},{"input":98,"output":99},{"input":100,"output":101},{"input":102,"output":103},{"input":104,"output":105},{"input":106,"output":107},{"input":108,"output":109},{"input":110,"output":111}],"name":"All Animations"}]}