{"asset":{"version":"2.0","generator":"babylon.js glTF exporter for 3dsmax 2017 v20200811.1"},"scene":0,"scenes":[{"nodes":[0,1,3]}],"nodes":[{"mesh":0,"scale":[3.0,3.0,3.0],"name":"Plane002"},{"children":[2],"translation":[0.0,1.5,0.0],"rotation":[0.7071068,0.0,0.0,0.7071067],"name":"Root_BWI_Schrift_v001"},{"mesh":1,"scale":[0.0,-1500.00049,0.0],"name":"BWI_IT_Schrift"},{"name":"Default light"}],"meshes":[{"primitives":[{"attributes":{"POSITION":1,"NORMAL":2,"TEXCOORD_0":3},"indices":0,"material":0}],"name":"Plane002"},{"primitives":[{"attributes":{"POSITION":5,"NORMAL":6,"TEXCOORD_0":7},"indices":4,"material":1}],"name":"BWI_IT_Schrift"}],"accessors":[{"bufferView":0,"componentType":5123,"count":6,"type":"SCALAR","name":"accessorIndices"},{"bufferView":1,"componentType":5126,"count":6,"max":[1.5,0.0,1.5],"min":[-1.5,0.0,-1.5],"type":"VEC3","name":"accessorPositions"},{"bufferView":1,"byteOffset":72,"componentType":5126,"count":6,"type":"VEC3","name":"accessorNormals"},{"bufferView":2,"componentType":5126,"count":6,"type":"VEC2","name":"accessorUVs"},{"bufferView":0,"byteOffset":12,"componentType":5123,"count":24822,"type":"SCALAR","name":"accessorIndices"},{"bufferView":1,"byteOffset":144,"componentType":5126,"count":24822,"max":[0.00141537527,0.000150984008,0.000403678481],"min":[-0.00138083531,3.69202373E-20,-0.000390762667],"type":"VEC3","name":"accessorPositions"},{"bufferView":1,"byteOffset":298008,"componentType":5126,"count":24822,"type":"VEC3","name":"accessorNormals"},{"bufferView":2,"byteOffset":48,"componentType":5126,"count":24822,"type":"VEC2","name":"accessorUVs"},{"bufferView":3,"componentType":5126,"count":59,"max":[7.96],"min":[0.0],"type":"SCALAR","name":"accessorAnimationInput"},{"bufferView":4,"componentType":5126,"count":59,"type":"VEC3","name":"accessorAnimationPositions"},{"bufferView":3,"byteOffset":236,"componentType":5126,"count":40,"max":[7.96],"min":[0.0],"type":"SCALAR","name":"accessorAnimationInput"},{"bufferView":4,"byteOffset":708,"componentType":5126,"count":40,"type":"VEC3","name":"accessorAnimationScales"}],"bufferViews":[{"buffer":0,"byteLength":49656,"name":"bufferViewScalar"},{"buffer":0,"byteOffset":49656,"byteLength":595872,"byteStride":12,"name":"bufferViewFloatVec3"},{"buffer":0,"byteOffset":645528,"byteLength":198624,"byteStride":8,"name":"bufferViewFloatVec2"},{"buffer":0,"byteOffset":844152,"byteLength":396,"name":"bufferViewAnimationFloatScalar"},{"buffer":0,"byteOffset":844548,"byteLength":1188,"name":"bufferViewAnimationFloatVec3"}],"buffers":[{"uri":"BWI_IT_Schrift.bin","byteLength":845736}],"materials":[{"pbrMetallicRoughness":{"baseColorTexture":{"index":0},"metallicFactor":0.0,"roughnessFactor":0.450053632},"name":"05 - Default"},{"pbrMetallicRoughness":{"metallicFactor":0.0,"roughnessFactor":0.292422682},"name":"M_Animation"}],"textures":[{"sampler":0,"source":0,"name":"Schrift.png"}],"images":[{"uri":"./Schrift.png"}],"samplers":[{"magFilter":9729,"minFilter":9987}],"animations":[{"channels":[{"sampler":0,"target":{"node":1,"path":"translation"}},{"sampler":1,"target":{"node":2,"path":"scale"}}],"samplers":[{"input":8,"output":9},{"input":10,"output":11}],"name":"All Animations"}]}