{"asset":{"version":"2.0","generator":"babylon.js glTF exporter for 3dsmax 2017 v20200811.1"},"scene":0,"scenes":[{"nodes":[0,1]}],"nodes":[{"mesh":0,"rotation":[0.7071068,0.0,0.0,0.7071067],"scale":[1.5106411,1.0,1.5106411],"name":"Locality"},{"name":"Default light"}],"meshes":[{"primitives":[{"attributes":{"POSITION":1,"NORMAL":2,"TEXCOORD_0":3},"indices":0,"material":0}],"name":"Locality"}],"accessors":[{"bufferView":0,"componentType":5123,"count":1608,"type":"SCALAR","name":"accessorIndices"},{"bufferView":1,"componentType":5126,"count":1608,"max":[0.499999851,0.100000486,4.119873E-05],"min":[-0.5,-0.100000568,-1.4],"type":"VEC3","name":"accessorPositions"},{"bufferView":1,"byteOffset":19296,"componentType":5126,"count":1608,"type":"VEC3","name":"accessorNormals"},{"bufferView":2,"componentType":5126,"count":1608,"type":"VEC2","name":"accessorUVs"}],"bufferViews":[{"buffer":0,"byteLength":3216,"name":"bufferViewScalar"},{"buffer":0,"byteOffset":3216,"byteLength":38592,"byteStride":12,"name":"bufferViewFloatVec3"},{"buffer":0,"byteOffset":41808,"byteLength":12864,"byteStride":8,"name":"bufferViewFloatVec2"}],"buffers":[{"uri":"BWI_IT_Locality_Icon.bin","byteLength":54672}],"materials":[{"pbrMetallicRoughness":{"metallicFactor":0.0,"roughnessFactor":0.450053632},"name":"06 - Default"}]}