{"asset":{"version":"2.0","generator":"babylon.js glTF exporter for 3dsmax 2017 v20200811.1"},"scene":0,"scenes":[{"nodes":[0,4]}],"nodes":[{"children":[1,2,3],"rotation":[0.7071068,0.0,0.0,0.7071067],"name":"Point001"},{"mesh":0,"scale":[0.0,0.0,0.0],"name":"Circle001"},{"mesh":1,"scale":[0.0,0.0,0.0],"name":"Circle002"},{"mesh":2,"scale":[0.0,0.0,0.0],"name":"Circle003"},{"name":"Default light"}],"meshes":[{"primitives":[{"attributes":{"POSITION":1,"NORMAL":2},"indices":0,"material":0}],"name":"Circle001"},{"primitives":[{"attributes":{"POSITION":4,"NORMAL":5},"indices":3,"material":0}],"name":"Circle002"},{"primitives":[{"attributes":{"POSITION":7,"NORMAL":8},"indices":6,"material":0}],"name":"Circle003"}],"accessors":[{"bufferView":0,"componentType":5123,"count":2676,"type":"SCALAR","name":"accessorIndices"},{"bufferView":1,"componentType":5126,"count":2676,"max":[0.42023626,0.01,0.6200181],"min":[-0.6200181,-0.01,-0.6200181],"type":"VEC3","name":"accessorPositions"},{"bufferView":1,"byteOffset":32112,"componentType":5126,"count":2676,"type":"VEC3","name":"accessorNormals"},{"bufferView":0,"byteOffset":5352,"componentType":5123,"count":2244,"type":"SCALAR","name":"accessorIndices"},{"bufferView":1,"byteOffset":64224,"componentType":5126,"count":2244,"max":[0.650018156,0.01,0.6476306],"min":[-0.440569371,-0.01,-0.650018156],"type":"VEC3","name":"accessorPositions"},{"bufferView":1,"byteOffset":91152,"componentType":5126,"count":2244,"type":"VEC3","name":"accessorNormals"},{"bufferView":0,"byteOffset":9840,"componentType":5123,"count":1428,"type":"SCALAR","name":"accessorIndices"},{"bufferView":1,"byteOffset":118080,"componentType":5126,"count":1428,"max":[0.657593846,0.01,0.660018146],"min":[-0.5196509,-0.01,0.05347264],"type":"VEC3","name":"accessorPositions"},{"bufferView":1,"byteOffset":135216,"componentType":5126,"count":1428,"type":"VEC3","name":"accessorNormals"},{"bufferView":2,"componentType":5126,"count":69,"max":[7.96],"min":[0.0],"type":"SCALAR","name":"accessorAnimationInput"},{"bufferView":3,"componentType":5126,"count":69,"type":"VEC4","name":"accessorAnimationRotations"},{"bufferView":2,"byteOffset":276,"componentType":5126,"count":10,"max":[7.96],"min":[0.0],"type":"SCALAR","name":"accessorAnimationInput"},{"bufferView":4,"componentType":5126,"count":10,"type":"VEC3","name":"accessorAnimationScales"},{"bufferView":2,"byteOffset":316,"componentType":5126,"count":23,"max":[7.96],"min":[0.0],"type":"SCALAR","name":"accessorAnimationInput"},{"bufferView":3,"byteOffset":1104,"componentType":5126,"count":23,"type":"VEC4","name":"accessorAnimationRotations"},{"bufferView":2,"byteOffset":408,"componentType":5126,"count":10,"max":[7.96],"min":[0.0],"type":"SCALAR","name":"accessorAnimationInput"},{"bufferView":4,"byteOffset":120,"componentType":5126,"count":10,"type":"VEC3","name":"accessorAnimationScales"},{"bufferView":2,"byteOffset":448,"componentType":5126,"count":23,"max":[7.96],"min":[0.0],"type":"SCALAR","name":"accessorAnimationInput"},{"bufferView":3,"byteOffset":1472,"componentType":5126,"count":23,"type":"VEC4","name":"accessorAnimationRotations"},{"bufferView":2,"byteOffset":540,"componentType":5126,"count":10,"max":[7.96],"min":[0.0],"type":"SCALAR","name":"accessorAnimationInput"},{"bufferView":4,"byteOffset":240,"componentType":5126,"count":10,"type":"VEC3","name":"accessorAnimationScales"}],"bufferViews":[{"buffer":0,"byteLength":12696,"name":"bufferViewScalar"},{"buffer":0,"byteOffset":12696,"byteLength":152352,"byteStride":12,"name":"bufferViewFloatVec3"},{"buffer":0,"byteOffset":165048,"byteLength":580,"name":"bufferViewAnimationFloatScalar"},{"buffer":0,"byteOffset":165628,"byteLength":1840,"name":"bufferViewAnimationFloatVec4"},{"buffer":0,"byteOffset":167468,"byteLength":360,"name":"bufferViewAnimationFloatVec3"}],"buffers":[{"uri":"Circel_Icons.bin","byteLength":167828}],"materials":[{"pbrMetallicRoughness":{"baseColorFactor":[0.941176534,0.941176534,0.941176534,1.0],"metallicFactor":0.0,"roughnessFactor":0.292422682},"name":"M_Animation"}],"animations":[{"channels":[{"sampler":0,"target":{"node":1,"path":"rotation"}},{"sampler":1,"target":{"node":1,"path":"scale"}},{"sampler":2,"target":{"node":2,"path":"rotation"}},{"sampler":3,"target":{"node":2,"path":"scale"}},{"sampler":4,"target":{"node":3,"path":"rotation"}},{"sampler":5,"target":{"node":3,"path":"scale"}}],"samplers":[{"input":9,"output":10},{"input":11,"output":12},{"input":13,"output":14},{"input":15,"output":16},{"input":17,"output":18},{"input":19,"output":20}],"name":"All Animations"}]}