{"asset":{"version":"2.0","generator":"babylon.js glTF exporter for 3dsmax 2017 v20200811.1"},"scene":0,"scenes":[{"nodes":[0,1,2,3,4,5,6,7,8]}],"nodes":[{"mesh":0,"translation":[0.7492132,-4.16073553E-15,-1.09106934],"scale":[1.99999977E-05,1.99999977E-05,1.99999977E-05],"name":"hardfact_01"},{"mesh":1,"translation":[0.7492132,-4.16073553E-15,-1.09106934],"scale":[1.99999977E-05,1.99999977E-05,1.99999977E-05],"name":"hardfact_002"},{"mesh":2,"translation":[0.7492132,-4.16073553E-15,-1.09106934],"scale":[1.99999977E-05,1.99999977E-05,1.99999977E-05],"name":"hardfact_003"},{"mesh":3,"translation":[0.7492132,-4.16073553E-15,-1.09106934],"scale":[1.99999977E-05,1.99999977E-05,1.99999977E-05],"name":"hardfact_004"},{"mesh":4,"translation":[0.7492132,-4.16073553E-15,-1.09106934],"scale":[1.99999977E-05,1.99999977E-05,1.99999977E-05],"name":"hardfact_005"},{"mesh":5,"translation":[0.7492132,-4.16073553E-15,-1.09106934],"scale":[1.99999977E-05,1.99999977E-05,1.99999977E-05],"name":"hardfact_006"},{"mesh":6,"translation":[0.7492132,-4.16073553E-15,-1.09106934],"scale":[1.99999977E-05,1.99999977E-05,1.99999977E-05],"name":"hardfact_007"},{"mesh":7,"translation":[0.0,-0.0616101064,0.0],"name":"Plane002"},{"name":"Default light"}],"meshes":[{"primitives":[{"attributes":{"POSITION":1,"NORMAL":2,"TEXCOORD_0":3,"TEXCOORD_1":4},"indices":0,"material":0}],"name":"hardfact_01"},{"primitives":[{"attributes":{"POSITION":6,"NORMAL":7,"TEXCOORD_0":8,"TEXCOORD_1":9},"indices":5,"material":1}],"name":"hardfact_002"},{"primitives":[{"attributes":{"POSITION":11,"NORMAL":12,"TEXCOORD_0":13,"TEXCOORD_1":14},"indices":10,"material":2}],"name":"hardfact_003"},{"primitives":[{"attributes":{"POSITION":16,"NORMAL":17,"TEXCOORD_0":18,"TEXCOORD_1":19},"indices":15,"material":3}],"name":"hardfact_004"},{"primitives":[{"attributes":{"POSITION":21,"NORMAL":22,"TEXCOORD_0":23,"TEXCOORD_1":24},"indices":20,"material":4}],"name":"hardfact_005"},{"primitives":[{"attributes":{"POSITION":26,"NORMAL":27,"TEXCOORD_0":28,"TEXCOORD_1":29},"indices":25,"material":5}],"name":"hardfact_006"},{"primitives":[{"attributes":{"POSITION":31,"NORMAL":32,"TEXCOORD_0":33,"TEXCOORD_1":34},"indices":30,"material":6}],"name":"hardfact_007"},{"primitives":[{"attributes":{"POSITION":36,"NORMAL":37,"TEXCOORD_0":38},"indices":35,"material":7}],"name":"Plane002"}],"accessors":[{"bufferView":0,"componentType":5123,"count":6,"type":"SCALAR","name":"accessorIndices"},{"bufferView":1,"componentType":5126,"count":6,"max":[3.67999983,-5E-07,5.4],"min":[-3.67999983,-5E-07,-5.4],"type":"VEC3","name":"accessorPositions"},{"bufferView":1,"byteOffset":72,"componentType":5126,"count":6,"type":"VEC3","name":"accessorNormals"},{"bufferView":2,"componentType":5126,"count":6,"type":"VEC2","name":"accessorUVs"},{"bufferView":2,"byteOffset":48,"componentType":5126,"count":6,"type":"VEC2","name":"accessorUV2s"},{"bufferView":0,"byteOffset":12,"componentType":5123,"count":6,"type":"SCALAR","name":"accessorIndices"},{"bufferView":1,"byteOffset":144,"componentType":5126,"count":6,"max":[3.67999983,-5E-07,5.4],"min":[-3.67999983,-5E-07,-5.4],"type":"VEC3","name":"accessorPositions"},{"bufferView":1,"byteOffset":216,"componentType":5126,"count":6,"type":"VEC3","name":"accessorNormals"},{"bufferView":2,"byteOffset":96,"componentType":5126,"count":6,"type":"VEC2","name":"accessorUVs"},{"bufferView":2,"byteOffset":144,"componentType":5126,"count":6,"type":"VEC2","name":"accessorUV2s"},{"bufferView":0,"byteOffset":24,"componentType":5123,"count":6,"type":"SCALAR","name":"accessorIndices"},{"bufferView":1,"byteOffset":288,"componentType":5126,"count":6,"max":[3.67999983,-5E-07,5.4],"min":[-3.67999983,-5E-07,-5.4],"type":"VEC3","name":"accessorPositions"},{"bufferView":1,"byteOffset":360,"componentType":5126,"count":6,"type":"VEC3","name":"accessorNormals"},{"bufferView":2,"byteOffset":192,"componentType":5126,"count":6,"type":"VEC2","name":"accessorUVs"},{"bufferView":2,"byteOffset":240,"componentType":5126,"count":6,"type":"VEC2","name":"accessorUV2s"},{"bufferView":0,"byteOffset":36,"componentType":5123,"count":6,"type":"SCALAR","name":"accessorIndices"},{"bufferView":1,"byteOffset":432,"componentType":5126,"count":6,"max":[3.67999983,-5E-07,5.4],"min":[-3.67999983,-5E-07,-5.4],"type":"VEC3","name":"accessorPositions"},{"bufferView":1,"byteOffset":504,"componentType":5126,"count":6,"type":"VEC3","name":"accessorNormals"},{"bufferView":2,"byteOffset":288,"componentType":5126,"count":6,"type":"VEC2","name":"accessorUVs"},{"bufferView":2,"byteOffset":336,"componentType":5126,"count":6,"type":"VEC2","name":"accessorUV2s"},{"bufferView":0,"byteOffset":48,"componentType":5123,"count":6,"type":"SCALAR","name":"accessorIndices"},{"bufferView":1,"byteOffset":576,"componentType":5126,"count":6,"max":[3.67999983,-5E-07,5.4],"min":[-3.67999983,-5E-07,-5.4],"type":"VEC3","name":"accessorPositions"},{"bufferView":1,"byteOffset":648,"componentType":5126,"count":6,"type":"VEC3","name":"accessorNormals"},{"bufferView":2,"byteOffset":384,"componentType":5126,"count":6,"type":"VEC2","name":"accessorUVs"},{"bufferView":2,"byteOffset":432,"componentType":5126,"count":6,"type":"VEC2","name":"accessorUV2s"},{"bufferView":0,"byteOffset":60,"componentType":5123,"count":6,"type":"SCALAR","name":"accessorIndices"},{"bufferView":1,"byteOffset":720,"componentType":5126,"count":6,"max":[3.67999983,-5E-07,5.4],"min":[-3.67999983,-5E-07,-5.4],"type":"VEC3","name":"accessorPositions"},{"bufferView":1,"byteOffset":792,"componentType":5126,"count":6,"type":"VEC3","name":"accessorNormals"},{"bufferView":2,"byteOffset":480,"componentType":5126,"count":6,"type":"VEC2","name":"accessorUVs"},{"bufferView":2,"byteOffset":528,"componentType":5126,"count":6,"type":"VEC2","name":"accessorUV2s"},{"bufferView":0,"byteOffset":72,"componentType":5123,"count":6,"type":"SCALAR","name":"accessorIndices"},{"bufferView":1,"byteOffset":864,"componentType":5126,"count":6,"max":[3.67999983,-5E-07,5.4],"min":[-3.67999983,-5E-07,-5.4],"type":"VEC3","name":"accessorPositions"},{"bufferView":1,"byteOffset":936,"componentType":5126,"count":6,"type":"VEC3","name":"accessorNormals"},{"bufferView":2,"byteOffset":576,"componentType":5126,"count":6,"type":"VEC2","name":"accessorUVs"},{"bufferView":2,"byteOffset":624,"componentType":5126,"count":6,"type":"VEC2","name":"accessorUV2s"},{"bufferView":0,"byteOffset":84,"componentType":5123,"count":6,"type":"SCALAR","name":"accessorIndices"},{"bufferView":1,"byteOffset":1008,"componentType":5126,"count":6,"max":[5.4,0.0,3.75],"min":[-5.4,0.0,-3.75],"type":"VEC3","name":"accessorPositions"},{"bufferView":1,"byteOffset":1080,"componentType":5126,"count":6,"type":"VEC3","name":"accessorNormals"},{"bufferView":2,"byteOffset":672,"componentType":5126,"count":6,"type":"VEC2","name":"accessorUVs"},{"bufferView":3,"componentType":5126,"count":14,"max":[25.0],"min":[0.0],"type":"SCALAR","name":"accessorAnimationInput"},{"bufferView":4,"componentType":5126,"count":14,"type":"VEC3","name":"accessorAnimationScales"},{"bufferView":3,"byteOffset":56,"componentType":5126,"count":14,"max":[25.0],"min":[0.0],"type":"SCALAR","name":"accessorAnimationInput"},{"bufferView":4,"byteOffset":168,"componentType":5126,"count":14,"type":"VEC3","name":"accessorAnimationScales"},{"bufferView":3,"byteOffset":112,"componentType":5126,"count":14,"max":[25.0],"min":[0.0],"type":"SCALAR","name":"accessorAnimationInput"},{"bufferView":4,"byteOffset":336,"componentType":5126,"count":14,"type":"VEC3","name":"accessorAnimationScales"},{"bufferView":3,"byteOffset":168,"componentType":5126,"count":14,"max":[25.0],"min":[0.0],"type":"SCALAR","name":"accessorAnimationInput"},{"bufferView":4,"byteOffset":504,"componentType":5126,"count":14,"type":"VEC3","name":"accessorAnimationScales"},{"bufferView":3,"byteOffset":224,"componentType":5126,"count":14,"max":[25.0],"min":[0.0],"type":"SCALAR","name":"accessorAnimationInput"},{"bufferView":4,"byteOffset":672,"componentType":5126,"count":14,"type":"VEC3","name":"accessorAnimationScales"},{"bufferView":3,"byteOffset":280,"componentType":5126,"count":14,"max":[25.0],"min":[0.0],"type":"SCALAR","name":"accessorAnimationInput"},{"bufferView":4,"byteOffset":840,"componentType":5126,"count":14,"type":"VEC3","name":"accessorAnimationScales"},{"bufferView":3,"byteOffset":336,"componentType":5126,"count":14,"max":[25.0],"min":[0.0],"type":"SCALAR","name":"accessorAnimationInput"},{"bufferView":4,"byteOffset":1008,"componentType":5126,"count":14,"type":"VEC3","name":"accessorAnimationScales"}],"bufferViews":[{"buffer":0,"byteLength":96,"name":"bufferViewScalar"},{"buffer":0,"byteOffset":96,"byteLength":1152,"byteStride":12,"name":"bufferViewFloatVec3"},{"buffer":0,"byteOffset":1248,"byteLength":720,"byteStride":8,"name":"bufferViewFloatVec2"},{"buffer":0,"byteOffset":1968,"byteLength":392,"name":"bufferViewAnimationFloatScalar"},{"buffer":0,"byteOffset":2360,"byteLength":1176,"name":"bufferViewAnimationFloatVec3"}],"buffers":[{"uri":"hardfact_01.bin","byteLength":3536}],"materials":[{"pbrMetallicRoughness":{"baseColorTexture":{"index":0},"metallicFactor":0.0,"roughnessFactor":0.450053632},"alphaMode":"BLEND","name":"07 - Default"},{"pbrMetallicRoughness":{"baseColorTexture":{"index":1},"metallicFactor":0.0,"roughnessFactor":0.450053632},"name":"120A_Insat_default"},{"pbrMetallicRoughness":{"baseColorTexture":{"index":2},"metallicFactor":0.0,"roughnessFactor":0.450053632},"name":"02 - Default"},{"pbrMetallicRoughness":{"baseColorTexture":{"index":2},"metallicRoughnessTexture":{"index":0}},"alphaMode":"MASK","name":"03 - Default"},{"pbrMetallicRoughness":{"baseColorTexture":{"index":3},"metallicFactor":0.0,"roughnessFactor":0.450053632},"name":"04 - Default"},{"pbrMetallicRoughness":{"baseColorTexture":{"index":4},"metallicFactor":0.0,"roughnessFactor":0.450053632},"name":"05 - Default"},{"pbrMetallicRoughness":{"baseColorTexture":{"index":5},"metallicFactor":0.0,"roughnessFactor":0.450053632},"name":"08 - Default"},{"pbrMetallicRoughness":{"baseColorFactor":[0.5882353,0.5882353,0.5882353,0.0],"metallicFactor":0.0,"roughnessFactor":0.450053632},"alphaMode":"BLEND","name":"09 - Default"}],"textures":[{"sampler":0,"source":0,"name":"hardfact_01.png"},{"sampler":0,"source":1,"name":"hardfact_02.png"},{"sampler":0,"source":2,"name":"hardfact_03.png"},{"sampler":0,"source":3,"name":"hardfact_04.png"},{"sampler":0,"source":4,"name":"hardfact_05.png"},{"sampler":0,"source":5,"name":"hardfact_07.png"}],"images":[{"uri":"./hardfact_01.png"},{"uri":"./hardfact_02.png"},{"uri":"./hardfact_03.png"},{"uri":"./hardfact_04.png"},{"uri":"./hardfact_05.png"},{"uri":"./hardfact_07.png"}],"samplers":[{"magFilter":9729,"minFilter":9987}],"animations":[{"channels":[{"sampler":0,"target":{"node":0,"path":"scale"}},{"sampler":1,"target":{"node":1,"path":"scale"}},{"sampler":2,"target":{"node":2,"path":"scale"}},{"sampler":3,"target":{"node":3,"path":"scale"}},{"sampler":4,"target":{"node":4,"path":"scale"}},{"sampler":5,"target":{"node":5,"path":"scale"}},{"sampler":6,"target":{"node":6,"path":"scale"}}],"samplers":[{"input":39,"output":40},{"input":41,"output":42},{"input":43,"output":44},{"input":45,"output":46},{"input":47,"output":48},{"input":49,"output":50},{"input":51,"output":52}],"name":"All Animations"}]}