{"asset":{"version":"2.0","generator":"babylon.js glTF exporter for 3dsmax 2017 v20200811.1"},"scene":0,"scenes":[{"nodes":[0,2,4,6,8,10,12,14]}],"nodes":[{"children":[1],"translation":[0.02,0.044,-0.02],"scale":[0.0001,0.0001,0.0001],"name":"root_hardfact_01"},{"mesh":0,"scale":[0.299999982,0.299999982,0.299999982],"name":"hardfact_01"},{"children":[3],"translation":[0.02,0.044,-0.02],"scale":[0.0001,0.0001,0.0001],"name":"root_hardfact_002"},{"mesh":1,"scale":[0.299999982,0.299999982,0.299999982],"name":"hardfact_002"},{"children":[5],"translation":[0.02,0.044,-0.02],"scale":[0.0001,0.0001,0.0001],"name":"root_hardfact_003"},{"mesh":2,"scale":[0.299999982,0.299999982,0.299999982],"name":"hardfact_003"},{"children":[7],"translation":[0.02,0.044,-0.02],"scale":[0.0001,0.0001,0.0001],"name":"root_hardfact_004"},{"mesh":3,"scale":[0.299999982,0.299999982,0.299999982],"name":"hardfact_004"},{"children":[9],"translation":[0.02,0.044,-0.02],"scale":[0.0001,0.0001,0.0001],"name":"root_hardfact_005"},{"mesh":4,"scale":[0.299999982,0.299999982,0.299999982],"name":"hardfact_005"},{"children":[11],"translation":[0.02,0.044,-0.02],"scale":[0.0001,0.0001,0.0001],"name":"root_hardfact_006"},{"mesh":5,"scale":[0.299999982,0.299999982,0.299999982],"name":"hardfact_006"},{"children":[13],"translation":[0.02,0.044,-0.02],"scale":[0.0001,0.0001,0.0001],"name":"root_hardfact_007"},{"mesh":6,"scale":[0.299999982,0.299999982,0.299999982],"name":"hardfact_007"},{"name":"Default light"}],"meshes":[{"primitives":[{"attributes":{"POSITION":1,"NORMAL":2,"TEXCOORD_0":3,"TEXCOORD_1":4},"indices":0,"material":0}],"name":"hardfact_01"},{"primitives":[{"attributes":{"POSITION":6,"NORMAL":7,"TEXCOORD_0":8,"TEXCOORD_1":9},"indices":5,"material":1}],"name":"hardfact_002"},{"primitives":[{"attributes":{"POSITION":11,"NORMAL":12,"TEXCOORD_0":13,"TEXCOORD_1":14},"indices":10,"material":2}],"name":"hardfact_003"},{"primitives":[{"attributes":{"POSITION":16,"NORMAL":17,"TEXCOORD_0":18,"TEXCOORD_1":19},"indices":15,"material":3}],"name":"hardfact_004"},{"primitives":[{"attributes":{"POSITION":21,"NORMAL":22,"TEXCOORD_0":23,"TEXCOORD_1":24},"indices":20,"material":4}],"name":"hardfact_005"},{"primitives":[{"attributes":{"POSITION":26,"NORMAL":27,"TEXCOORD_0":28,"TEXCOORD_1":29},"indices":25,"material":5}],"name":"hardfact_006"},{"primitives":[{"attributes":{"POSITION":31,"NORMAL":32,"TEXCOORD_0":33,"TEXCOORD_1":34},"indices":30,"material":6}],"name":"hardfact_007"}],"accessors":[{"bufferView":0,"componentType":5123,"count":6,"type":"SCALAR","name":"accessorIndices"},{"bufferView":1,"componentType":5126,"count":6,"max":[3.67999983,-5E-07,5.4],"min":[-3.67999983,-5E-07,-5.4],"type":"VEC3","name":"accessorPositions"},{"bufferView":1,"byteOffset":72,"componentType":5126,"count":6,"type":"VEC3","name":"accessorNormals"},{"bufferView":2,"componentType":5126,"count":6,"type":"VEC2","name":"accessorUVs"},{"bufferView":2,"byteOffset":48,"componentType":5126,"count":6,"type":"VEC2","name":"accessorUV2s"},{"bufferView":0,"byteOffset":12,"componentType":5123,"count":6,"type":"SCALAR","name":"accessorIndices"},{"bufferView":1,"byteOffset":144,"componentType":5126,"count":6,"max":[3.67999983,-5E-07,5.4],"min":[-3.67999983,-5E-07,-5.4],"type":"VEC3","name":"accessorPositions"},{"bufferView":1,"byteOffset":216,"componentType":5126,"count":6,"type":"VEC3","name":"accessorNormals"},{"bufferView":2,"byteOffset":96,"componentType":5126,"count":6,"type":"VEC2","name":"accessorUVs"},{"bufferView":2,"byteOffset":144,"componentType":5126,"count":6,"type":"VEC2","name":"accessorUV2s"},{"bufferView":0,"byteOffset":24,"componentType":5123,"count":6,"type":"SCALAR","name":"accessorIndices"},{"bufferView":1,"byteOffset":288,"componentType":5126,"count":6,"max":[3.67999983,-5E-07,5.4],"min":[-3.67999983,-5E-07,-5.4],"type":"VEC3","name":"accessorPositions"},{"bufferView":1,"byteOffset":360,"componentType":5126,"count":6,"type":"VEC3","name":"accessorNormals"},{"bufferView":2,"byteOffset":192,"componentType":5126,"count":6,"type":"VEC2","name":"accessorUVs"},{"bufferView":2,"byteOffset":240,"componentType":5126,"count":6,"type":"VEC2","name":"accessorUV2s"},{"bufferView":0,"byteOffset":36,"componentType":5123,"count":6,"type":"SCALAR","name":"accessorIndices"},{"bufferView":1,"byteOffset":432,"componentType":5126,"count":6,"max":[3.67999983,-5E-07,5.4],"min":[-3.67999983,-5E-07,-5.4],"type":"VEC3","name":"accessorPositions"},{"bufferView":1,"byteOffset":504,"componentType":5126,"count":6,"type":"VEC3","name":"accessorNormals"},{"bufferView":2,"byteOffset":288,"componentType":5126,"count":6,"type":"VEC2","name":"accessorUVs"},{"bufferView":2,"byteOffset":336,"componentType":5126,"count":6,"type":"VEC2","name":"accessorUV2s"},{"bufferView":0,"byteOffset":48,"componentType":5123,"count":6,"type":"SCALAR","name":"accessorIndices"},{"bufferView":1,"byteOffset":576,"componentType":5126,"count":6,"max":[3.67999983,-5E-07,5.4],"min":[-3.67999983,-5E-07,-5.4],"type":"VEC3","name":"accessorPositions"},{"bufferView":1,"byteOffset":648,"componentType":5126,"count":6,"type":"VEC3","name":"accessorNormals"},{"bufferView":2,"byteOffset":384,"componentType":5126,"count":6,"type":"VEC2","name":"accessorUVs"},{"bufferView":2,"byteOffset":432,"componentType":5126,"count":6,"type":"VEC2","name":"accessorUV2s"},{"bufferView":0,"byteOffset":60,"componentType":5123,"count":6,"type":"SCALAR","name":"accessorIndices"},{"bufferView":1,"byteOffset":720,"componentType":5126,"count":6,"max":[3.67999983,-5E-07,5.4],"min":[-3.67999983,-5E-07,-5.4],"type":"VEC3","name":"accessorPositions"},{"bufferView":1,"byteOffset":792,"componentType":5126,"count":6,"type":"VEC3","name":"accessorNormals"},{"bufferView":2,"byteOffset":480,"componentType":5126,"count":6,"type":"VEC2","name":"accessorUVs"},{"bufferView":2,"byteOffset":528,"componentType":5126,"count":6,"type":"VEC2","name":"accessorUV2s"},{"bufferView":0,"byteOffset":72,"componentType":5123,"count":6,"type":"SCALAR","name":"accessorIndices"},{"bufferView":1,"byteOffset":864,"componentType":5126,"count":6,"max":[3.67999983,-5E-07,5.4],"min":[-3.67999983,-5E-07,-5.4],"type":"VEC3","name":"accessorPositions"},{"bufferView":1,"byteOffset":936,"componentType":5126,"count":6,"type":"VEC3","name":"accessorNormals"},{"bufferView":2,"byteOffset":576,"componentType":5126,"count":6,"type":"VEC2","name":"accessorUVs"},{"bufferView":2,"byteOffset":624,"componentType":5126,"count":6,"type":"VEC2","name":"accessorUV2s"},{"bufferView":3,"componentType":5126,"count":22,"max":[25.0],"min":[0.0],"type":"SCALAR","name":"accessorAnimationInput"},{"bufferView":4,"componentType":5126,"count":22,"type":"VEC3","name":"accessorAnimationScales"},{"bufferView":3,"byteOffset":88,"componentType":5126,"count":22,"max":[25.0],"min":[0.0],"type":"SCALAR","name":"accessorAnimationInput"},{"bufferView":4,"byteOffset":264,"componentType":5126,"count":22,"type":"VEC3","name":"accessorAnimationScales"},{"bufferView":3,"byteOffset":176,"componentType":5126,"count":22,"max":[25.0],"min":[0.0],"type":"SCALAR","name":"accessorAnimationInput"},{"bufferView":4,"byteOffset":528,"componentType":5126,"count":22,"type":"VEC3","name":"accessorAnimationScales"},{"bufferView":3,"byteOffset":264,"componentType":5126,"count":22,"max":[25.0],"min":[0.0],"type":"SCALAR","name":"accessorAnimationInput"},{"bufferView":4,"byteOffset":792,"componentType":5126,"count":22,"type":"VEC3","name":"accessorAnimationScales"},{"bufferView":3,"byteOffset":352,"componentType":5126,"count":24,"max":[25.0],"min":[0.0],"type":"SCALAR","name":"accessorAnimationInput"},{"bufferView":4,"byteOffset":1056,"componentType":5126,"count":24,"type":"VEC3","name":"accessorAnimationScales"},{"bufferView":3,"byteOffset":448,"componentType":5126,"count":22,"max":[25.0],"min":[0.0],"type":"SCALAR","name":"accessorAnimationInput"},{"bufferView":4,"byteOffset":1344,"componentType":5126,"count":22,"type":"VEC3","name":"accessorAnimationScales"},{"bufferView":3,"byteOffset":536,"componentType":5126,"count":22,"max":[25.0],"min":[0.0],"type":"SCALAR","name":"accessorAnimationInput"},{"bufferView":4,"byteOffset":1608,"componentType":5126,"count":22,"type":"VEC3","name":"accessorAnimationScales"}],"bufferViews":[{"buffer":0,"byteLength":84,"name":"bufferViewScalar"},{"buffer":0,"byteOffset":84,"byteLength":1008,"byteStride":12,"name":"bufferViewFloatVec3"},{"buffer":0,"byteOffset":1092,"byteLength":672,"byteStride":8,"name":"bufferViewFloatVec2"},{"buffer":0,"byteOffset":1764,"byteLength":624,"name":"bufferViewAnimationFloatScalar"},{"buffer":0,"byteOffset":2388,"byteLength":1872,"name":"bufferViewAnimationFloatVec3"}],"buffers":[{"uri":"hardfact_01.bin","byteLength":4260}],"materials":[{"pbrMetallicRoughness":{"baseColorTexture":{"index":0},"metallicFactor":0.0,"roughnessFactor":0.450053632},"alphaMode":"BLEND","name":"07 - Default"},{"pbrMetallicRoughness":{"baseColorTexture":{"index":1},"metallicFactor":0.0,"roughnessFactor":0.450053632},"name":"120A_Insat_default"},{"pbrMetallicRoughness":{"baseColorTexture":{"index":2},"metallicFactor":0.0,"roughnessFactor":0.450053632},"alphaMode":"MASK","name":"03 - Default"},{"pbrMetallicRoughness":{"baseColorTexture":{"index":3},"metallicFactor":0.0,"roughnessFactor":0.450053632},"name":"04 - Default"},{"pbrMetallicRoughness":{"baseColorTexture":{"index":4},"metallicFactor":0.0,"roughnessFactor":0.450053632},"name":"05 - Default"},{"pbrMetallicRoughness":{"baseColorTexture":{"index":5},"metallicFactor":0.0,"roughnessFactor":0.450053632},"name":"06 - Default"},{"pbrMetallicRoughness":{"baseColorTexture":{"index":6},"metallicFactor":0.0,"roughnessFactor":0.450053632},"name":"08 - Default"}],"textures":[{"sampler":0,"source":0,"name":"hardfact_01.png"},{"sampler":0,"source":1,"name":"hardfact_02.png"},{"sampler":0,"source":2,"name":"hardfact_03.png"},{"sampler":0,"source":3,"name":"hardfact_04.png"},{"sampler":0,"source":4,"name":"hardfact_05.png"},{"sampler":0,"source":5,"name":"hardfact_06.png"},{"sampler":0,"source":6,"name":"hardfact_07.png"}],"images":[{"uri":"./hardfact_01.png"},{"uri":"./hardfact_02.png"},{"uri":"./hardfact_03.png"},{"uri":"./hardfact_04.png"},{"uri":"./hardfact_05.png"},{"uri":"./hardfact_06.png"},{"uri":"./hardfact_07.png"}],"samplers":[{"magFilter":9729,"minFilter":9987}],"animations":[{"channels":[{"sampler":0,"target":{"node":0,"path":"scale"}},{"sampler":1,"target":{"node":2,"path":"scale"}},{"sampler":2,"target":{"node":4,"path":"scale"}},{"sampler":3,"target":{"node":6,"path":"scale"}},{"sampler":4,"target":{"node":8,"path":"scale"}},{"sampler":5,"target":{"node":10,"path":"scale"}},{"sampler":6,"target":{"node":12,"path":"scale"}}],"samplers":[{"input":35,"output":36},{"input":37,"output":38},{"input":39,"output":40},{"input":41,"output":42},{"input":43,"output":44},{"input":45,"output":46},{"input":47,"output":48}],"name":"All Animations"}]}