{"asset":{"version":"2.0","generator":"babylon.js glTF exporter for 3dsmax 2017 v20200811.1"},"scene":0,"scenes":[{"nodes":[0,1,2]}],"nodes":[{"mesh":0,"translation":[0.0,0.182479814,0.0],"scale":[10.6784248,10.6784248,10.6784248],"name":"video_Playbutton"},{"mesh":1,"translation":[0.0,0.0506261066,0.0506270975],"scale":[3.6316,3.6316,3.6316],"name":"Plane002"},{"name":"Default light"}],"meshes":[{"primitives":[{"attributes":{"POSITION":1,"NORMAL":2,"TEXCOORD_0":3,"TEXCOORD_1":4},"indices":0,"material":0}],"name":"video_Playbutton"},{"primitives":[{"attributes":{"POSITION":6,"NORMAL":7,"TEXCOORD_0":8},"indices":5,"material":1}],"name":"Plane002"}],"accessors":[{"bufferView":0,"componentType":5123,"count":6,"type":"SCALAR","name":"accessorIndices"},{"bufferView":1,"componentType":5126,"count":6,"max":[0.099999994,-4.91497246E-07,0.099999994],"min":[-0.099999994,-4.91497246E-07,-0.099999994],"type":"VEC3","name":"accessorPositions"},{"bufferView":1,"byteOffset":72,"componentType":5126,"count":6,"type":"VEC3","name":"accessorNormals"},{"bufferView":2,"componentType":5126,"count":6,"type":"VEC2","name":"accessorUVs"},{"bufferView":2,"byteOffset":48,"componentType":5126,"count":6,"type":"VEC2","name":"accessorUV2s"},{"bufferView":0,"byteOffset":12,"componentType":5123,"count":6,"type":"SCALAR","name":"accessorIndices"},{"bufferView":1,"byteOffset":144,"componentType":5126,"count":6,"max":[0.399999976,0.0,0.399999976],"min":[-0.399999976,0.0,-0.399999976],"type":"VEC3","name":"accessorPositions"},{"bufferView":1,"byteOffset":216,"componentType":5126,"count":6,"type":"VEC3","name":"accessorNormals"},{"bufferView":2,"byteOffset":96,"componentType":5126,"count":6,"type":"VEC2","name":"accessorUVs"}],"bufferViews":[{"buffer":0,"byteLength":24,"name":"bufferViewScalar"},{"buffer":0,"byteOffset":24,"byteLength":288,"byteStride":12,"name":"bufferViewFloatVec3"},{"buffer":0,"byteOffset":312,"byteLength":144,"byteStride":8,"name":"bufferViewFloatVec2"}],"buffers":[{"uri":"video_playbutton_v6.bin","byteLength":456}],"materials":[{"pbrMetallicRoughness":{"baseColorTexture":{"index":0},"metallicFactor":0.0,"roughnessFactor":0.450053632},"alphaMode":"MASK","name":"03 - Default"},{"pbrMetallicRoughness":{"baseColorFactor":[0.0,0.9921569,0.04705883,1.0],"metallicFactor":0.0,"roughnessFactor":0.450053632},"name":"04 - Default"}],"textures":[{"sampler":0,"source":0,"name":"video_playbutton_1K.png"}],"images":[{"uri":"./video_playbutton_1K.png"}],"samplers":[{"magFilter":9729,"minFilter":9987}]}