{"asset":{"version":"2.0","generator":"babylon.js glTF exporter for 3dsmax 2017 v20200811.1"},"scene":0,"scenes":[{"nodes":[0,1]}],"nodes":[{"mesh":0,"translation":[0.0,0.241830438,0.0],"rotation":[0.7071068,0.0,0.0,0.7071067],"name":"Plane001"},{"name":"Default light"}],"meshes":[{"primitives":[{"attributes":{"POSITION":1,"NORMAL":2,"TEXCOORD_0":3},"indices":0,"material":0}],"name":"Plane001"}],"accessors":[{"bufferView":0,"componentType":5123,"count":6,"type":"SCALAR","name":"accessorIndices"},{"bufferView":1,"componentType":5126,"count":6,"max":[0.099999994,0.0,0.099999994],"min":[-0.099999994,0.0,-0.099999994],"type":"VEC3","name":"accessorPositions"},{"bufferView":1,"byteOffset":72,"componentType":5126,"count":6,"type":"VEC3","name":"accessorNormals"},{"bufferView":2,"componentType":5126,"count":6,"type":"VEC2","name":"accessorUVs"}],"bufferViews":[{"buffer":0,"byteLength":12,"name":"bufferViewScalar"},{"buffer":0,"byteOffset":12,"byteLength":144,"byteStride":12,"name":"bufferViewFloatVec3"},{"buffer":0,"byteOffset":156,"byteLength":48,"byteStride":8,"name":"bufferViewFloatVec2"}],"buffers":[{"uri":"video_playbutton.bin","byteLength":204}],"materials":[{"pbrMetallicRoughness":{"baseColorTexture":{"index":0},"metallicFactor":0.0,"roughnessFactor":0.450053632},"alphaMode":"MASK","name":"03 - Default"}],"textures":[{"sampler":0,"source":0,"name":"video_playbutton_1K.png"}],"images":[{"uri":"./video_playbutton_1K.png"}],"samplers":[{"magFilter":9729,"minFilter":9987}]}